<?xml version="1.0" standalone="no"?>
<!DOCTYPE svg PUBLIC "-//W3C//DTD SVG 20010904//EN"
 "http://www.w3.org/TR/2001/REC-SVG-20010904/DTD/svg10.dtd">
<svg version="1.0" xmlns="http://www.w3.org/2000/svg"
 width="450.000000pt" height="450.000000pt" viewBox="0 0 450.000000 450.000000"
 preserveAspectRatio="xMidYMid meet">
<metadata>
Created by potrace 1.10, written by Peter Selinger 2001-2011
</metadata>
<g transform="translate(0.000000,450.000000) scale(0.050000,-0.050000)"
fill="#f20226" stroke="none">
<path d="M2120 7310 l0 -210 -208 0 -209 0 -11 -145 c-7 -80 -10 -176 -7 -215
l5 -70 -215 -6 -215 -5 0 -1040 0 -1039 218 0 218 0 -3 -255 -3 -255 215 -6
215 -5 0 -210 0 -209 220 0 220 0 0 -220 0 -220 210 0 210 0 0 -210 0 -210
220 0 220 0 0 -220 0 -220 220 0 220 0 0 -220 0 -220 210 0 210 0 0 -210 0
-210 220 0 220 0 0 210 0 210 210 0 210 0 0 220 0 220 219 0 220 0 5 215 6
215 215 6 215 5 0 210 0 209 210 0 210 0 0 220 0 220 220 0 220 0 0 209 0 210
215 5 215 6 0 215 0 215 215 0 215 0 0 1079 0 1080 -215 5 -215 6 0 210 0 210
-215 6 -215 5 0 210 0 209 -870 0 -870 0 0 -210 0 -210 -210 0 -210 0 0 -220
0 -220 -220 0 -220 0 0 220 0 220 -210 0 -210 0 0 210 0 210 -870 0 -870 0 0
-210z m1300 -870 l0 -220 -209 0 -210 0 -5 -215 -6 -215 -210 0 -210 0 -6
-215 -5 -215 -220 0 -219 0 0 440 0 440 210 0 210 0 0 210 0 210 440 0 440 0
0 -220z"/>
</g>
</svg>
